<svg width="22" height="22" viewBox="0 0 22 22" fill="none" xmlns="http://www.w3.org/2000/svg">
<path d="M17.5099 0.693359H4.49004C2.39292 0.693359 0.692871 2.39341 0.692871 4.49053V17.5104C0.692871 19.6075 2.39292 21.3075 4.49004 21.3075H17.5099C19.607 21.3075 21.307 19.6075 21.307 17.5104V4.49053C21.307 2.39341 19.607 0.693359 17.5099 0.693359Z" fill="#CBCCD5"/>
<path d="M17.5099 22H4.49008C2.01291 22 0 19.9871 0 17.5099V4.49008C0 2.01291 2.01291 0 4.49008 0H17.5099C19.9871 0 22 2.01291 22 4.49008V17.5099C22 19.9871 19.9871 22 17.5099 22ZM4.49008 1.38583C2.77858 1.38583 1.38583 2.77858 1.38583 4.49008V17.5099C1.38583 19.2214 2.77858 20.6142 4.49008 20.6142H17.5099C19.2214 20.6142 20.6142 19.2214 20.6142 17.5099V4.49008C20.6142 2.77858 19.2214 1.38583 17.5099 1.38583H4.49008Z" fill="#CBCCD5"/>
</svg>
