<svg width="22" height="22" viewBox="0 0 22 22" fill="none" xmlns="http://www.w3.org/2000/svg">
<g clip-path="url(#clip0_80_58122)">
<path d="M11 22C17.0751 22 22 17.0751 22 11C22 4.92487 17.0751 0 11 0C4.92487 0 0 4.92487 0 11C0 17.0751 4.92487 22 11 22Z" fill="#08B4BA"/>
<path d="M7.97476 15.4588C7.9507 15.4588 7.92663 15.4588 7.90601 15.4588C7.66882 15.4382 7.44882 15.3248 7.29757 15.1426L4.54757 11.8426C4.23476 11.4679 4.28632 10.911 4.66101 10.5982C5.0357 10.2854 5.59257 10.337 5.90538 10.7117L8.07788 13.3173L15.9223 6.48353C16.2901 6.16384 16.8469 6.20166 17.1666 6.56947C17.4863 6.93728 17.4485 7.49416 17.0807 7.81384L8.5557 15.2388C8.39413 15.3798 8.18788 15.4554 7.97476 15.4554V15.4588Z" fill="white"/>
</g>
<defs>
<clipPath id="clip0_80_58122">
<rect width="22" height="22" fill="white"/>
</clipPath>
</defs>
</svg>
