<svg width="124" height="165" viewBox="0 0 124 165" fill="none" xmlns="http://www.w3.org/2000/svg">
<path d="M95.7888 45.7827C69.3751 28.8293 10.2283 36.1709 1.5316 85.2918C-8.19524 140.307 70.6364 164.051 70.6364 164.051C70.6364 164.051 28.1302 133.258 78.369 127.542C126.673 122.033 138.447 73.1642 95.7888 45.7827ZM27.1529 95.6271C24.5136 95.6251 21.9694 94.6363 20.0151 92.8531C18.0609 91.0698 16.8364 88.6196 16.5798 85.9791C16.3232 83.3385 17.0528 80.6964 18.6267 78.5667C20.2007 76.437 22.5064 74.9719 25.0954 74.4565C27.6845 73.9411 30.3716 74.4121 32.6343 75.778C34.897 77.1439 36.5733 79.307 37.3373 81.8465C38.1013 84.3861 37.8982 87.1204 36.7677 89.5178C35.6371 91.9152 33.6599 93.8042 31.2206 94.8173C29.9312 95.3547 28.5487 95.6299 27.1529 95.6271ZM61.3916 95.6271C58.5742 95.6253 55.8728 94.4995 53.8806 92.4969C51.8884 90.4943 50.7684 87.7787 50.7667 84.9466H72.0165C72.0165 86.3512 71.7411 87.742 71.206 89.0395C70.6709 90.337 69.8866 91.5157 68.8979 92.5083C67.9093 93.5008 66.7357 94.2878 65.4444 94.824C64.153 95.3603 62.7691 95.6355 61.3718 95.6337L61.3916 95.6271ZM95.6303 95.6271C93.0076 95.6188 90.4817 94.6302 88.5439 92.8536C86.606 91.077 85.3948 88.6393 85.1458 86.0148C84.8968 83.3902 85.6278 80.7664 87.1966 78.6536C88.7654 76.5407 91.0599 75.09 93.6338 74.5835C96.2077 74.077 98.877 74.551 101.123 75.9132C103.368 77.2754 105.029 79.4285 105.783 81.9537C106.537 84.4789 106.33 87.1957 105.201 89.5757C104.073 91.9557 102.104 93.8287 99.6782 94.8305C98.3825 95.3614 96.9965 95.6342 95.5973 95.6337L95.6303 95.6271Z" fill="white"/>
<path d="M90.9152 15.4226C90.9152 15.4226 79.5045 12.3692 75.7802 23.0164C72.0558 33.6637 61.8205 36.9562 53.005 30.3182C44.1894 23.6802 45.4176 6.90612 66.7929 1.11118C88.1682 -4.68376 100.418 15.2168 105.093 24.9083C109.768 34.5997 120.221 36.9163 123.008 27.5303C123.008 27.5303 125.748 36.8234 114.483 39.4786C103.217 42.1338 87.4088 21.3702 80.6007 21.7818C80.6007 21.7884 81.9214 17.0224 90.9152 15.4226Z" fill="white"/>
</svg>
